<svg xmlns="http://www.w3.org/2000/svg" width="223.034" height="82.503" viewBox="0 0 223.034 82.503"><g transform="translate(-80.449 -154.593)"><g transform="translate(80.449 193.153)"><path d="M84.075,278.929q0-1.493-.089-2.471a3.625,3.625,0,0,0-.462-1.582,2.193,2.193,0,0,0-1.084-.889,7.171,7.171,0,0,0-1.991-.391v-.427q1.1.072,2.168.107t2.168.036q1.421,0,2.844-.143t3.058-.142a16.569,16.569,0,0,1,3.145.32,10.315,10.315,0,0,1,3.04,1.084,6.972,6.972,0,0,1,2.311,2.044,5.323,5.323,0,0,1,.924,3.2,4.593,4.593,0,0,1-1.013,2.9,5.227,5.227,0,0,1-2.507,1.8v.07a8.085,8.085,0,0,1,3.822,2.4,6.413,6.413,0,0,1,1.368,4.284,4.858,4.858,0,0,1-.711,2.72,5.325,5.325,0,0,1-1.884,1.742,8.438,8.438,0,0,1-2.667.924,17.386,17.386,0,0,1-3.057.267q-2.453,0-4.817-.178t-4.817-.177q-.818,0-1.653.036t-1.653.106v-.426a7.055,7.055,0,0,0,1.954-.391,2.1,2.1,0,0,0,1.067-.889,3.794,3.794,0,0,0,.444-1.582q.088-.977.089-2.471Zm3.2,4.48a6.847,6.847,0,0,0,1.955.676,11.491,11.491,0,0,0,2.026.177A5.7,5.7,0,0,0,95.042,283a4.48,4.48,0,0,0,1.511-3.645,4.647,4.647,0,0,0-.5-2.168,5.429,5.429,0,0,0-1.315-1.653,5.86,5.86,0,0,0-1.9-1.067,6.889,6.889,0,0,0-2.257-.373q-.853,0-1.671.071a6.8,6.8,0,0,0-1.635.356Zm0,11.091a1.211,1.211,0,0,0,.658.5,7.673,7.673,0,0,0,1.209.374,13.887,13.887,0,0,0,2.968.337,6.329,6.329,0,0,0,4.5-1.511,5.715,5.715,0,0,0,1.618-4.39,4.706,4.706,0,0,0-.96-2.862,9.273,9.273,0,0,0-2.2-2.151q-.853.143-1.707.267a11.959,11.959,0,0,1-1.742.124,19.449,19.449,0,0,1-2.2-.124,8.728,8.728,0,0,1-2.134-.515Z" transform="translate(-80.449 -273.027)" fill="#072a52"/><path d="M160.453,302.826c.181.04.4.081.663.121s.543.08.845.12.614.075.935.105.623.045.905.045a15.81,15.81,0,0,0,3.243-.3,9.281,9.281,0,0,0,2.625-.966,10.694,10.694,0,0,0,2.248-1.689,20.97,20.97,0,0,0,2.141-2.474l.332.271-2.746,6.065q-.513-.061-1.056-.091t-1.056-.03H158.19q-.876,0-1.75.03t-1.749.091v-.362a6.055,6.055,0,0,0,1.69-.332,1.774,1.774,0,0,0,.9-.754,3.229,3.229,0,0,0,.378-1.342q.075-.83.076-2.1V289.158q0-1.267-.076-2.1a3.235,3.235,0,0,0-.378-1.342,1.772,1.772,0,0,0-.935-.754,6.5,6.5,0,0,0-1.72-.332v-.362l1.946.06q.921.03,1.9.045t2.082.015h2.489q2.111,0,4.223-.03t4.285-.09q-.031.332-.045.664c-.011.221-.015.433-.015.634v1.207q0,.664.061,1.342t.12,1.494l-.393.12a7.5,7.5,0,0,0-1.041-2.368,4.974,4.974,0,0,0-1.508-1.433,5.532,5.532,0,0,0-1.886-.694,12.48,12.48,0,0,0-2.172-.181q-2.112,0-4.223.181v7.543q.6,0,1.161-.031t1.161-.03a5.8,5.8,0,0,0,3.3-.83,4.046,4.046,0,0,0,1.493-3.033h.362q0,1.087-.03,2.173t-.031,2.142q0,1.087.031,2.172t.03,2.172h-.362a9.09,9.09,0,0,0-.664-2.066,3.2,3.2,0,0,0-.98-1.222,3.5,3.5,0,0,0-1.463-.573,12.481,12.481,0,0,0-2.082-.151h-1.931Z" transform="translate(-130.478 -280.61)" fill="#072a52"/><path d="M232.179,289a11.381,11.381,0,0,0-1.01-1.917,8.629,8.629,0,0,0-1.433-1.689,6.97,6.97,0,0,0-1.811-1.192,5.182,5.182,0,0,0-2.172-.453,5.6,5.6,0,0,0-2.821.634,2.385,2.385,0,0,0-1.1,2.262,2.843,2.843,0,0,0,.5,1.675,4.821,4.821,0,0,0,1.328,1.252,12.2,12.2,0,0,0,1.885,1q1.056.453,2.157.92t2.158,1.011a8.718,8.718,0,0,1,1.885,1.3,5.933,5.933,0,0,1,1.327,1.75,5.272,5.272,0,0,1,.5,2.383,5.573,5.573,0,0,1-.543,2.55,5.013,5.013,0,0,1-1.463,1.765,6.244,6.244,0,0,1-2.142,1.026,9.927,9.927,0,0,1-2.61.332,9.223,9.223,0,0,1-1.569-.141q-.815-.141-1.569-.312l-1.372-.312a4.744,4.744,0,0,0-.981-.14,1.9,1.9,0,0,0-.633.105q-.3.106-.634.226-.272-1.719-.634-3.364t-.754-3.364l.392-.211a22.115,22.115,0,0,0,1.312,2.2,13.406,13.406,0,0,0,1.735,2.1,9.524,9.524,0,0,0,2.127,1.584,5.172,5.172,0,0,0,2.519.633,7.194,7.194,0,0,0,1.69-.2,4.3,4.3,0,0,0,1.433-.618,3.049,3.049,0,0,0,.981-1.1,3.515,3.515,0,0,0,.362-1.672,3.362,3.362,0,0,0-.875-2.366A8.411,8.411,0,0,0,228.166,295a25.51,25.51,0,0,0-2.821-1.31,20.889,20.889,0,0,1-2.821-1.355,8.29,8.29,0,0,1-2.173-1.777,3.85,3.85,0,0,1-.875-2.591,4.949,4.949,0,0,1,1.675-3.78,5.437,5.437,0,0,1,1.78-1.04,6.364,6.364,0,0,1,2.157-.361,12.109,12.109,0,0,1,2.006.151q.89.151,1.735.332.875.181,1.72.347a9.4,9.4,0,0,0,1.81.166q0,1.358.046,2.64t.2,2.58Z" transform="translate(-173.663 -279.61)" fill="#072a52"/><path d="M276.872,303.761a6.055,6.055,0,0,0,1.69-.332,1.849,1.849,0,0,0,.92-.754,3.072,3.072,0,0,0,.392-1.342q.076-.83.076-2.1v-14a24.514,24.514,0,0,0-2.67.121,4.313,4.313,0,0,0-1.855.619,4.252,4.252,0,0,0-1.373,1.523,15.1,15.1,0,0,0-1.161,2.806l-.393-.12.423-5.913q1.267.061,2.5.09t2.5.03h7.09q1.206,0,2.384-.03t2.384-.09l.423,5.913-.393.12a15.139,15.139,0,0,0-1.161-2.806,4.258,4.258,0,0,0-1.373-1.523,4.359,4.359,0,0,0-1.885-.619,25.744,25.744,0,0,0-2.731-.121v14q0,1.267.076,2.1a3.072,3.072,0,0,0,.392,1.342,1.842,1.842,0,0,0,.951.754,6.551,6.551,0,0,0,1.75.332v.362q-1.147-.061-2.293-.091t-2.293-.03q-1.116,0-2.2.03t-2.172.091Z" transform="translate(-209.97 -280.61)" fill="#072a52"/><path d="M372.526,273.891a16.256,16.256,0,0,0-2.667.568,3.321,3.321,0,0,0-1.4.8,2.2,2.2,0,0,0-.551,1.209,12.667,12.667,0,0,0-.107,1.8v17.064q.96.179,1.867.32a11.719,11.719,0,0,0,1.831.143,14,14,0,0,0,3.661-.427,9.212,9.212,0,0,0,2.809-1.28,10.841,10.841,0,0,0,2.293-2.151,28.511,28.511,0,0,0,2.115-3.039h.533l-2.737,7.963q-1.281-.071-2.578-.106t-2.577-.036H364.563q-.889,0-1.778.036t-1.777.106v-.426a7.8,7.8,0,0,0,1.866-.356,3.041,3.041,0,0,0,1.085-.622,1.793,1.793,0,0,0,.515-.906,5.516,5.516,0,0,0,.125-1.245V279.223q0-1.493-.09-2.471a3.783,3.783,0,0,0-.444-1.582,2.1,2.1,0,0,0-1.066-.889,7.176,7.176,0,0,0-1.991-.391v-.427q1.387.072,2.755.107t2.755.036q1.492,0,3-.036t3-.107Z" transform="translate(-269.663 -273.322)" fill="#072a52"/><path d="M436.975,302.826c.181.04.4.081.663.121s.543.08.845.12.614.075.935.105.623.045.905.045a15.806,15.806,0,0,0,3.243-.3,9.279,9.279,0,0,0,2.625-.966,10.692,10.692,0,0,0,2.247-1.689,20.968,20.968,0,0,0,2.142-2.474l.332.271-2.746,6.065q-.513-.061-1.056-.091t-1.056-.03H434.712q-.876,0-1.75.03t-1.75.091v-.362a6.057,6.057,0,0,0,1.69-.332,1.776,1.776,0,0,0,.9-.754,3.23,3.23,0,0,0,.377-1.342q.075-.83.076-2.1V289.158q0-1.267-.076-2.1a3.235,3.235,0,0,0-.377-1.342,1.775,1.775,0,0,0-.935-.754,6.507,6.507,0,0,0-1.72-.332v-.362l1.946.06q.921.03,1.9.045t2.082.015h2.489q2.111,0,4.223-.03t4.284-.09q-.03.332-.045.664c-.011.221-.015.433-.015.634v1.207q0,.664.06,1.342t.121,1.494l-.393.12a7.506,7.506,0,0,0-1.041-2.368,4.973,4.973,0,0,0-1.508-1.433,5.534,5.534,0,0,0-1.886-.694,12.477,12.477,0,0,0-2.172-.181q-2.112,0-4.223.181v7.543q.6,0,1.161-.031c.371-.02.759-.03,1.161-.03a5.8,5.8,0,0,0,3.3-.83,4.045,4.045,0,0,0,1.494-3.033h.362q0,1.087-.03,2.173t-.03,2.142q0,1.087.03,2.172t.03,2.172h-.362a9.091,9.091,0,0,0-.664-2.066,3.2,3.2,0,0,0-.98-1.222,3.5,3.5,0,0,0-1.463-.573,12.475,12.475,0,0,0-2.082-.151h-1.931Z" transform="translate(-316.97 -280.61)" fill="#072a52"/><path d="M497.65,294.283l-1.992,5.461c-.061.161-.116.3-.166.423a1.013,1.013,0,0,0-.075.392,1.442,1.442,0,0,0,.316.935,2.654,2.654,0,0,0,.769.649,4.755,4.755,0,0,0,.935.407,6.847,6.847,0,0,0,.815.212v.362q-.905-.061-1.811-.091T494.6,303q-.906,0-1.765.03t-1.825.091v-.362a4.067,4.067,0,0,0,2.595-1.69,7.7,7.7,0,0,0,.74-1.327q.316-.724.618-1.509l5.22-12.822c.06-.14.116-.272.166-.392a.872.872,0,0,0,.076-.331,1.543,1.543,0,0,0-.106-.453,2.809,2.809,0,0,0-.257-.543,6.823,6.823,0,0,0,1.358-.392q.572-.242,1.268-.513l6.275,17.257a4.467,4.467,0,0,0,1.177,1.855,4,4,0,0,0,2.233.86v.362q-1.207-.061-2.368-.091t-2.429-.03h-1.418q-.6,0-1.086.015t-.92.046c-.292.02-.609.04-.95.06v-.362a5.521,5.521,0,0,0,2.127-.649,1.506,1.506,0,0,0,.859-1.342,1.187,1.187,0,0,0-.106-.483,3.534,3.534,0,0,1-.166-.453l-1.961-5.551Zm3.258-8.568-2.957,7.664h5.672Z" transform="translate(-357.34 -279.61)" fill="#072a52"/><path d="M560.045,303.136a5.589,5.589,0,0,0,1.584-.332,2.73,2.73,0,0,0,.906-.558,1.472,1.472,0,0,0,.407-.679,2.96,2.96,0,0,0,.091-.723V286.9a7.862,7.862,0,0,0-.076-1.161,1.727,1.727,0,0,0-.377-.86,2.016,2.016,0,0,0-.9-.573,7,7,0,0,0-1.63-.3v-.362q.784.061,1.569.09t1.569.03a34,34,0,0,0,3.922-.211,32.021,32.021,0,0,1,3.711-.211,13.711,13.711,0,0,1,4.585.754,11.471,11.471,0,0,1,3.757,2.157,10.183,10.183,0,0,1,2.55,3.395,10.384,10.384,0,0,1,.935,4.465,9.258,9.258,0,0,1-.906,4.269,8.286,8.286,0,0,1-2.413,2.9,9.9,9.9,0,0,1-3.455,1.644,15.827,15.827,0,0,1-4.057.513q-1.63,0-2.791-.015t-2.036-.015q-.876,0-1.569-.015t-1.327-.015q-1.026,0-2.022.03t-2.021.091Zm5.7-2.051a5.393,5.393,0,0,0,2.217,1.267,9.022,9.022,0,0,0,2.52.362q4.645,0,6.773-2.384t2.127-6.909a9.446,9.446,0,0,0-.709-3.665,9.219,9.219,0,0,0-1.961-2.972,9.038,9.038,0,0,0-2.987-1.991,10.1,10.1,0,0,0-7.8.121q-.121,1.569-.151,3.122t-.03,3.183Z" transform="translate(-403.897 -279.985)" fill="#072a52"/><path d="M642.873,302.826c.181.04.4.081.663.121s.543.08.845.12.614.075.935.105.623.045.905.045a15.8,15.8,0,0,0,3.243-.3,9.278,9.278,0,0,0,2.625-.966,10.7,10.7,0,0,0,2.248-1.689,20.975,20.975,0,0,0,2.141-2.474l.332.271-2.746,6.065q-.512-.061-1.056-.091t-1.056-.03H640.61q-.876,0-1.75.03t-1.75.091v-.362a6.057,6.057,0,0,0,1.69-.332,1.775,1.775,0,0,0,.9-.754,3.223,3.223,0,0,0,.377-1.342q.075-.83.076-2.1V289.158q0-1.267-.076-2.1a3.229,3.229,0,0,0-.377-1.342,1.774,1.774,0,0,0-.935-.754,6.507,6.507,0,0,0-1.72-.332v-.362l1.946.06q.921.03,1.9.045t2.082.015h2.489q2.111,0,4.223-.03t4.284-.09q-.03.332-.045.664c-.011.221-.015.433-.015.634v1.207q0,.664.06,1.342t.121,1.494l-.393.12a7.5,7.5,0,0,0-1.041-2.368,4.974,4.974,0,0,0-1.508-1.433,5.532,5.532,0,0,0-1.886-.694,12.477,12.477,0,0,0-2.172-.181q-2.112,0-4.223.181v7.543q.6,0,1.161-.031t1.161-.03a5.8,5.8,0,0,0,3.3-.83,4.046,4.046,0,0,0,1.494-3.033h.362q0,1.087-.03,2.173t-.03,2.142q0,1.087.03,2.172t.03,2.172h-.362a9.092,9.092,0,0,0-.664-2.066,3.2,3.2,0,0,0-.98-1.222,3.5,3.5,0,0,0-1.463-.573,12.474,12.474,0,0,0-2.082-.151h-1.931Z" transform="translate(-455.831 -280.61)" fill="#072a52"/><path d="M721.8,303.627h-5.43a52.928,52.928,0,0,1-3.514-4.269,34.592,34.592,0,0,1-2.882-4.631,6.154,6.154,0,0,1-.769-.06q-.468-.06-.965-.135t-.966-.181q-.468-.106-.769-.2v4.706q0,1.267.076,2.1a3.069,3.069,0,0,0,.392,1.342,1.843,1.843,0,0,0,.95.754,6.555,6.555,0,0,0,1.75.332v.362q-1.147-.061-2.293-.091t-2.293-.03q-1.117,0-2.2.03t-2.172.091v-.362a6.054,6.054,0,0,0,1.69-.332,1.85,1.85,0,0,0,.92-.754,3.067,3.067,0,0,0,.392-1.342q.075-.83.076-2.1V288.783q0-1.267-.076-2.1a3.072,3.072,0,0,0-.392-1.342,1.86,1.86,0,0,0-.92-.754,6.093,6.093,0,0,0-1.69-.332V283.9q.966.061,1.931.09t1.931.03q.422,0,1.056-.045t1.342-.105q.709-.061,1.433-.106t1.3-.045a11.171,11.171,0,0,1,2.655.332A7.637,7.637,0,0,1,714.8,285.1a5.987,5.987,0,0,1,1.78,1.84,4.931,4.931,0,0,1,.694,2.655,4.4,4.4,0,0,1-.378,1.87,4.6,4.6,0,0,1-1.011,1.418,5.362,5.362,0,0,1-1.493,1,7.99,7.99,0,0,1-1.8.573q.422.724,1,1.629t1.282,1.841q.709.936,1.509,1.856a14.569,14.569,0,0,0,1.689,1.659,10.8,10.8,0,0,0,1.826,1.237,5.017,5.017,0,0,0,1.9.588Zm-15.3-10.5a7.865,7.865,0,0,0,2.806.513,5.53,5.53,0,0,0,3.65-1.086,4.361,4.361,0,0,0,1.3-3.53,4.151,4.151,0,0,0-.377-1.795,4.278,4.278,0,0,0-1.041-1.388,4.753,4.753,0,0,0-1.523-.905,5.159,5.159,0,0,0-1.8-.316q-.755,0-1.479.06a6.826,6.826,0,0,0-1.418.272q-.061,1.448-.09,2.927t-.031,3.2Z" transform="translate(-498.764 -280.235)" fill="#072a52"/></g><g transform="translate(149.634 154.593)"><g transform="translate(0)"><path d="M318.841,182.716l25.9-28.123s-12.56,8.314-25.9,8.314-25.894-8.314-25.894-8.314Z" transform="translate(-292.947 -154.593)" fill="#072a52"/></g><g transform="translate(31.557)"><path d="M415.766,154.593l25.9,28.123s-12.56-8.314-25.9-8.314-25.9,8.314-25.9,8.314Z" transform="translate(-389.871 -154.593)" fill="#316ea5"/></g></g><g transform="translate(80.449 225.74)"><path d="M80.482,384.557c1.563-.132,1.679-.625,1.679-2.469v-5.5c0-1.843-.115-2.337-1.712-2.469v-.2c.889.033,1.794.066,2.682.066.724,0,1.448-.033,2.156-.066v.2c-1.531.131-1.646.625-1.646,2.469v5.5c0,1.843.115,2.337,1.728,2.469v.2c-.839-.033-1.662-.066-2.5-.066-.806,0-1.6.033-2.386.066Z" transform="translate(-80.449 -373.662)" fill="#072a52"/><path d="M98.644,373.925c.774.033,1.382.066,2.3.066.477,0,.938-.033,1.415-.066.872,1.169,5.4,6.518,6.731,8.344h.033c0-.658.016-1.3.016-1.958V378.4c0-2.814-.3-4.131-2.057-4.279v-.2c.774.033,1.547.066,2.321.066.707,0,1.432-.033,2.139-.066v.2c-1.382.2-1.81.708-1.81,2.041v8.723h-.609a68.223,68.223,0,0,0-7.521-9.348c-.017.56-.033,1.119-.033,1.679v2.88c0,3.884.164,4.246,2.205,4.46v.2c-1.086-.033-2.172-.066-3.259-.066-.625,0-1.251.033-1.876.066v-.2c1.514-.2,2.205-.28,2.238-1.794l.2-7.554a6.034,6.034,0,0,0-2.436-1.086Z" transform="translate(-92.72 -373.662)" fill="#072a52"/><path d="M142.982,384.557c1.563-.132,1.679-.625,1.679-2.469v-7.637c-2.288,0-3.028.165-3.851,2.765l-.214-.066.23-3.226c.905.033,1.827.066,2.732.066h3.868c.872,0,1.728-.033,2.6-.066l.231,3.226-.214.066c-.823-2.6-1.563-2.765-3.9-2.765v7.637c0,1.843.115,2.337,1.728,2.469v.2c-.839-.033-1.662-.066-2.5-.066-.806,0-1.6.033-2.387.066Z" transform="translate(-121.013 -373.662)" fill="#072a52"/><path d="M176.828,384.047a10.127,10.127,0,0,0,1.827.214c2.65,0,4.015-.856,5.6-2.962l.181.148-1.5,3.308c-.379-.033-.774-.066-1.152-.066h-6.188c-.642,0-1.267.033-1.909.066v-.2c1.563-.132,1.662-.625,1.662-2.469v-5.5c0-1.843-.1-2.337-1.695-2.469v-.2c1.481.033,2.584.066,4.591.066,1.531,0,3.078-.033,4.641-.066-.033.511-.033.938-.033,1.366,0,.477.066.954.1,1.547l-.214.066c-.56-2.123-1.942-2.551-3.6-2.551-.774,0-1.53.033-2.3.1v4.114c.428,0,.839-.033,1.267-.033,1.5,0,2.419-.511,2.617-2.107h.2c0,.79-.033,1.58-.033,2.353,0,.79.033,1.58.033,2.37h-.2c-.379-1.859-1.07-2.189-2.831-2.189h-1.053Z" transform="translate(-143.307 -373.662)" fill="#072a52"/><path d="M219.879,384.484h-2.962a21.875,21.875,0,0,1-3.489-4.855,8.419,8.419,0,0,1-1.893-.313v2.568c0,1.843.115,2.337,1.728,2.469v.2c-.839-.033-1.662-.066-2.5-.066-.806,0-1.6.033-2.387.066v-.2c1.564-.132,1.679-.625,1.679-2.469v-5.5c0-1.843-.115-2.337-1.679-2.469v-.2c.708.033,1.4.066,2.107.066.609,0,1.958-.164,2.8-.164,1.909,0,4.131.955,4.131,3.209a2.768,2.768,0,0,1-2.551,2.65c.921,1.563,2.913,4.575,5.02,4.806Zm-8.344-5.727a4.837,4.837,0,0,0,1.531.28c1.695,0,2.7-.741,2.7-2.518a2.459,2.459,0,0,0-2.584-2.4,5.543,5.543,0,0,0-1.58.181c-.033,1.053-.066,2.107-.066,3.341Z" transform="translate(-166.725 -373.458)" fill="#072a52"/><path d="M243.705,373.925c.774.033,1.382.066,2.3.066.477,0,.938-.033,1.415-.066.873,1.169,5.4,6.518,6.731,8.344h.033c0-.658.017-1.3.017-1.958V378.4c0-2.814-.3-4.131-2.057-4.279v-.2c.774.033,1.547.066,2.321.066.707,0,1.432-.033,2.139-.066v.2c-1.382.2-1.811.708-1.811,2.041v8.723h-.609a68.176,68.176,0,0,0-7.521-9.348c-.016.56-.033,1.119-.033,1.679v2.88c0,3.884.165,4.246,2.205,4.46v.2c-1.086-.033-2.173-.066-3.259-.066-.625,0-1.251.033-1.876.066v-.2c1.514-.2,2.205-.28,2.238-1.794l.2-7.554a6.032,6.032,0,0,0-2.436-1.086Z" transform="translate(-190.552 -373.662)" fill="#072a52"/><path d="M287.609,379.387l-1.086,2.979a1.235,1.235,0,0,0-.132.444c0,.79,1.053,1.119,1.547,1.2v.2c-.658-.033-1.317-.066-1.991-.066-.658,0-1.251.033-1.958.066v-.2c1.366-.3,1.7-1.35,2.156-2.469l2.848-6.995a1.118,1.118,0,0,0,.132-.395,1.576,1.576,0,0,0-.2-.543,6.386,6.386,0,0,0,1.432-.494l3.423,9.414a2.006,2.006,0,0,0,1.86,1.481v.2c-.872-.033-1.728-.066-2.617-.066-1.2,0-1.629.033-2.387.066v-.2c.922-.115,1.63-.477,1.63-1.086a1.678,1.678,0,0,0-.148-.51l-1.07-3.029Zm1.778-4.674-1.613,4.18h3.094Z" transform="translate(-217.72 -373.117)" fill="#072a52"/><path d="M319.887,384.557c1.563-.132,1.679-.625,1.679-2.469v-7.637c-2.288,0-3.028.165-3.851,2.765l-.214-.066.231-3.226c.905.033,1.827.066,2.732.066h3.868c.872,0,1.728-.033,2.6-.066l.23,3.226-.214.066c-.823-2.6-1.563-2.765-3.9-2.765v7.637c0,1.843.115,2.337,1.728,2.469v.2c-.839-.033-1.662-.066-2.5-.066-.806,0-1.6.033-2.386.066Z" transform="translate(-240.321 -373.662)" fill="#072a52"/><path d="M350.994,384.557c1.563-.132,1.679-.625,1.679-2.469v-5.5c0-1.843-.115-2.337-1.712-2.469v-.2c.889.033,1.794.066,2.682.066.724,0,1.448-.033,2.156-.066v.2c-1.531.131-1.646.625-1.646,2.469v5.5c0,1.843.115,2.337,1.728,2.469v.2c-.839-.033-1.662-.066-2.5-.066-.806,0-1.6.033-2.386.066Z" transform="translate(-262.887 -373.662)" fill="#072a52"/><path d="M376.812,373.117c3.341,0,6.089,2.139,6.089,5.678s-2.748,5.678-6.089,5.678-6.089-2.139-6.089-5.678S373.472,373.117,376.812,373.117Zm0,10.763c2.732,0,4.345-2.4,4.345-5.086s-1.613-5.086-4.345-5.086-4.345,2.4-4.345,5.086S374.08,383.88,376.812,383.88Z" transform="translate(-276.215 -373.117)" fill="#072a52"/><path d="M411.259,373.925c.774.033,1.382.066,2.3.066.477,0,.938-.033,1.415-.066.872,1.169,5.4,6.518,6.731,8.344h.033c0-.658.016-1.3.016-1.958V378.4c0-2.814-.3-4.131-2.057-4.279v-.2c.774.033,1.547.066,2.321.066.708,0,1.432-.033,2.139-.066v.2c-1.382.2-1.81.708-1.81,2.041v8.723h-.609a68.2,68.2,0,0,0-7.521-9.348c-.017.56-.033,1.119-.033,1.679v2.88c0,3.884.164,4.246,2.205,4.46v.2c-1.086-.033-2.172-.066-3.259-.066-.625,0-1.251.033-1.876.066v-.2c1.514-.2,2.206-.28,2.238-1.794l.2-7.554a6.034,6.034,0,0,0-2.436-1.086Z" transform="translate(-303.553 -373.662)" fill="#072a52"/><path d="M455.164,379.387l-1.086,2.979a1.228,1.228,0,0,0-.132.444c0,.79,1.053,1.119,1.547,1.2v.2c-.658-.033-1.317-.066-1.991-.066-.658,0-1.251.033-1.958.066v-.2c1.366-.3,1.695-1.35,2.156-2.469l2.847-6.995a1.117,1.117,0,0,0,.131-.395,1.579,1.579,0,0,0-.2-.543,6.39,6.39,0,0,0,1.432-.494l3.423,9.414a2.006,2.006,0,0,0,1.859,1.481v.2c-.872-.033-1.728-.066-2.617-.066-1.2,0-1.629.033-2.387.066v-.2c.922-.115,1.63-.477,1.63-1.086a1.679,1.679,0,0,0-.148-.51l-1.07-3.029Zm1.777-4.674-1.613,4.18h3.094Z" transform="translate(-330.722 -373.117)" fill="#072a52"/><path d="M494.43,374.123c-2.107.3-2.189.691-2.189,2.024v7.9a9.015,9.015,0,0,0,1.712.214c2.583,0,3.735-1.037,5.036-3.193h.247l-1.267,3.687c-.79-.033-1.6-.066-2.387-.066h-4.839c-.543,0-1.1.033-1.645.066v-.2c1.432-.132,1.662-.593,1.662-1.448v-6.518c0-1.843-.1-2.337-1.662-2.469v-.2c.856.033,1.695.066,2.551.066.922,0,1.86-.033,2.781-.066Z" transform="translate(-356.049 -373.662)" fill="#072a52"/><path d="M539.818,374.123c-2.107.3-2.189.691-2.189,2.024v7.9a9.012,9.012,0,0,0,1.712.214c2.584,0,3.736-1.037,5.036-3.193h.247l-1.267,3.687c-.79-.033-1.6-.066-2.387-.066h-4.838c-.543,0-1.1.033-1.646.066v-.2c1.432-.132,1.662-.593,1.662-1.448v-6.518c0-1.843-.1-2.337-1.662-2.469v-.2c.856.033,1.7.066,2.551.066.922,0,1.86-.033,2.781-.066Z" transform="translate(-386.66 -373.662)" fill="#072a52"/><path d="M567.675,384.557c1.564-.132,1.679-.625,1.679-2.469v-5.5c0-1.843-.115-2.337-1.712-2.469v-.2c.889.033,1.794.066,2.683.066.724,0,1.448-.033,2.156-.066v.2c-1.531.131-1.646.625-1.646,2.469v5.5c0,1.843.115,2.337,1.728,2.469v.2c-.839-.033-1.662-.066-2.5-.066-.806,0-1.6.033-2.387.066Z" transform="translate(-409.021 -373.662)" fill="#072a52"/><path d="M595.053,373.925c.79.033,1.58.066,2.37.066.691,0,1.4-.033,2.09-.066v.2c-.922.148-1.58.411-1.58,1.465a59.383,59.383,0,0,0,1.218,7.456c.2.856.395,1.333,1.843,1.514v.2c-.873-.033-1.745-.066-2.617-.066-.823,0-1.629.033-2.452.066v-.2c.938-.148,1.711-.313,1.711-1.432a7.6,7.6,0,0,0-.115-1.284l-1.136-6.633h-.033c-1.234,3.143-2.765,6.172-3.785,9.48h-.033a69.647,69.647,0,0,0-3.917-9.644h-.033c-.362,2.419-.741,6.221-.741,7.357,0,1.448.329,2.09,1.909,2.156v.2c-.9-.033-1.794-.066-2.7-.066-.675,0-1.35.033-2.024.066v-.2a2.058,2.058,0,0,0,2.008-1.382c.132-.757.23-1.646.345-2.469l.79-5.859a3.985,3.985,0,0,0-1.777-.724v-.2c.938.033,1.876.066,2.814.066.675,0,1.35-.033,2.024-.066v.2c-.411.1-.84.329-.84.872a2.9,2.9,0,0,0,.3,1.086l2.321,5.694a60.962,60.962,0,0,0,2.979-7.093,2.11,2.11,0,0,0-.938-.56Z" transform="translate(-420.748 -373.662)" fill="#072a52"/><path d="M636.011,384.557c1.564-.132,1.679-.625,1.679-2.469v-5.5c0-1.843-.115-2.337-1.712-2.469v-.2c.889.033,1.794.066,2.683.066.724,0,1.448-.033,2.156-.066v.2c-1.531.131-1.646.625-1.646,2.469v5.5c0,1.843.115,2.337,1.728,2.469v.2c-.839-.033-1.662-.066-2.5-.066-.806,0-1.6.033-2.387.066Z" transform="translate(-455.108 -373.662)" fill="#072a52"/><path d="M657.319,384.557c1.563-.132,1.679-.625,1.679-2.469v-7.637c-2.288,0-3.028.165-3.851,2.765l-.214-.066.231-3.226c.905.033,1.827.066,2.732.066h3.867c.873,0,1.728-.033,2.6-.066l.23,3.226-.214.066c-.823-2.6-1.563-2.765-3.9-2.765v7.637c0,1.843.115,2.337,1.728,2.469v.2c-.839-.033-1.662-.066-2.5-.066-.806,0-1.6.033-2.386.066Z" transform="translate(-467.891 -373.662)" fill="#072a52"/><path d="M691.164,384.047a10.135,10.135,0,0,0,1.827.214c2.65,0,4.016-.856,5.6-2.962l.181.148-1.5,3.308c-.378-.033-.773-.066-1.152-.066H689.93c-.642,0-1.267.033-1.909.066v-.2c1.563-.132,1.662-.625,1.662-2.469v-5.5c0-1.843-.1-2.337-1.7-2.469v-.2c1.481.033,2.584.066,4.592.066,1.531,0,3.078-.033,4.641-.066-.033.511-.033.938-.033,1.366,0,.477.066.954.1,1.547l-.214.066c-.56-2.123-1.942-2.551-3.6-2.551-.774,0-1.531.033-2.3.1v4.114c.428,0,.839-.033,1.267-.033,1.5,0,2.419-.511,2.617-2.107h.2c0,.79-.033,1.58-.033,2.353,0,.79.033,1.58.033,2.37h-.2c-.378-1.859-1.07-2.189-2.831-2.189h-1.053Z" transform="translate(-490.184 -373.662)" fill="#072a52"/><path d="M722.713,384.216c1.448-.132,1.629-.724,1.629-1.251v-7.6c0-.955-.115-1.449-1.629-1.58v-.2c.576.033,1.136.066,1.711.066,1.547,0,2.765-.231,4.164-.231,3.538,0,6.451,2.272,6.451,5.876,0,3.637-2.847,5.085-5.909,5.085-2.337,0-3.275-.033-4.213-.033-.74,0-1.465.033-2.205.066Zm3.11-1.119a3.752,3.752,0,0,0,2.584.889c3.374,0,4.855-1.778,4.855-5.069a5.016,5.016,0,0,0-5.151-5.1,5.432,5.432,0,0,0-2.189.461c-.082,1.136-.1,2.288-.1,3.439Z" transform="translate(-513.604 -373.321)" fill="#072a52"/></g></g></svg>