<svg xmlns="http://www.w3.org/2000/svg" width="231.754" height="82.503" viewBox="0 0 231.754 82.503">
  <g id="logo" transform="translate(-67.525 -173.868)">
    <g id="Group_205" data-name="Group 205" transform="translate(67.525 213.936)">
      <path id="Path_324" data-name="Path 324" d="M71.293,302.32q0-1.552-.092-2.567a3.767,3.767,0,0,0-.48-1.644,2.279,2.279,0,0,0-1.126-.924,7.453,7.453,0,0,0-2.069-.406v-.443q1.145.075,2.253.111t2.253.037a29.562,29.562,0,0,0,2.955-.148q1.477-.147,3.177-.148a17.243,17.243,0,0,1,3.269.332,10.727,10.727,0,0,1,3.158,1.127,7.245,7.245,0,0,1,2.4,2.124,5.532,5.532,0,0,1,.96,3.324,4.77,4.77,0,0,1-1.052,3.011,5.427,5.427,0,0,1-2.6,1.866v.073a8.4,8.4,0,0,1,3.971,2.493,6.665,6.665,0,0,1,1.422,4.451,5.048,5.048,0,0,1-.739,2.826,5.537,5.537,0,0,1-1.958,1.81,8.771,8.771,0,0,1-2.771.96,18.1,18.1,0,0,1-3.177.277q-2.549,0-5-.185t-5.006-.184q-.85,0-1.717.037t-1.718.11V320.2a7.333,7.333,0,0,0,2.031-.407,2.176,2.176,0,0,0,1.108-.923,3.941,3.941,0,0,0,.462-1.644q.092-1.016.092-2.567Zm3.324,4.655a7.1,7.1,0,0,0,2.032.7,11.944,11.944,0,0,0,2.106.184,5.925,5.925,0,0,0,3.933-1.311,4.655,4.655,0,0,0,1.57-3.787,4.825,4.825,0,0,0-.517-2.253,5.635,5.635,0,0,0-1.367-1.717,6.088,6.088,0,0,0-1.977-1.108,7.159,7.159,0,0,0-2.345-.388q-.886,0-1.736.074a7.042,7.042,0,0,0-1.7.369Zm0,11.525a1.258,1.258,0,0,0,.684.517,7.98,7.98,0,0,0,1.256.388,14.432,14.432,0,0,0,3.084.35,6.577,6.577,0,0,0,4.673-1.57A5.939,5.939,0,0,0,86,313.624a4.888,4.888,0,0,0-1-2.974,9.628,9.628,0,0,0-2.29-2.235q-.886.148-1.773.277a12.4,12.4,0,0,1-1.809.129,20.16,20.16,0,0,1-2.29-.129,9.085,9.085,0,0,1-2.217-.536Z" transform="translate(-67.525 -296.188)" fill="#072a52"/>
      <path id="Path_325" data-name="Path 325" d="M150.191,327.081q.283.062.689.125t.878.125q.47.062.972.109t.941.047a16.415,16.415,0,0,0,3.37-.313,9.647,9.647,0,0,0,2.728-1,11.117,11.117,0,0,0,2.336-1.755,21.8,21.8,0,0,0,2.225-2.57l.345.282-2.853,6.3q-.533-.063-1.1-.094t-1.1-.031H147.84q-.91,0-1.819.031t-1.818.094v-.376a6.3,6.3,0,0,0,1.756-.345,1.845,1.845,0,0,0,.94-.784,3.352,3.352,0,0,0,.392-1.395q.078-.862.079-2.179V312.879q0-1.316-.079-2.179a3.355,3.355,0,0,0-.392-1.395,1.842,1.842,0,0,0-.972-.784,6.776,6.776,0,0,0-1.787-.345V307.8q1.066.031,2.022.062t1.975.047q1.019.016,2.163.016h2.586q2.193,0,4.388-.031t4.452-.094c-.021.23-.037.46-.047.69s-.016.449-.016.658V310.4q0,.69.063,1.395t.125,1.552l-.408.125a7.8,7.8,0,0,0-1.081-2.461,5.17,5.17,0,0,0-1.567-1.489,5.745,5.745,0,0,0-1.96-.721,12.971,12.971,0,0,0-2.257-.188q-2.194,0-4.389.188v7.838q.627,0,1.207-.031t1.207-.031a6.024,6.024,0,0,0,3.433-.862,4.2,4.2,0,0,0,1.552-3.151h.376q0,1.129-.031,2.257t-.032,2.226q0,1.129.032,2.257t.031,2.257h-.376a9.441,9.441,0,0,0-.69-2.147,3.327,3.327,0,0,0-1.018-1.269,3.634,3.634,0,0,0-1.52-.6,12.965,12.965,0,0,0-2.163-.157h-2.006Z" transform="translate(-119.044 -303.997)" fill="#072a52"/>
      <path id="Path_326" data-name="Path 326" d="M224.318,312.727a11.817,11.817,0,0,0-1.049-1.991,8.979,8.979,0,0,0-1.489-1.755,7.257,7.257,0,0,0-1.882-1.239,5.387,5.387,0,0,0-2.257-.47,5.821,5.821,0,0,0-2.931.659,2.479,2.479,0,0,0-1.145,2.351,2.951,2.951,0,0,0,.518,1.74,4.99,4.99,0,0,0,1.38,1.3,12.663,12.663,0,0,0,1.959,1.035q1.1.471,2.241.956t2.242,1.05a9.053,9.053,0,0,1,1.959,1.348,6.171,6.171,0,0,1,1.379,1.819,5.479,5.479,0,0,1,.518,2.476,5.787,5.787,0,0,1-.564,2.649,5.212,5.212,0,0,1-1.52,1.835,6.49,6.49,0,0,1-2.226,1.066,10.319,10.319,0,0,1-2.712.345,9.56,9.56,0,0,1-1.63-.147q-.847-.146-1.631-.324l-1.426-.324a4.937,4.937,0,0,0-1.019-.146,1.977,1.977,0,0,0-.658.109q-.314.11-.658.235-.282-1.787-.659-3.5t-.784-3.5l.407-.219a23.006,23.006,0,0,0,1.364,2.288,13.918,13.918,0,0,0,1.8,2.179,9.9,9.9,0,0,0,2.21,1.646,5.375,5.375,0,0,0,2.618.658,7.475,7.475,0,0,0,1.756-.2,4.471,4.471,0,0,0,1.488-.641,3.168,3.168,0,0,0,1.019-1.143,3.654,3.654,0,0,0,.376-1.737,3.492,3.492,0,0,0-.909-2.458,8.741,8.741,0,0,0-2.258-1.721,26.59,26.59,0,0,0-2.931-1.361,21.707,21.707,0,0,1-2.931-1.409,8.623,8.623,0,0,1-2.258-1.847,4,4,0,0,1-.909-2.693,5.141,5.141,0,0,1,1.74-3.928,5.653,5.653,0,0,1,1.85-1.08,6.607,6.607,0,0,1,2.241-.376,12.586,12.586,0,0,1,2.085.157q.925.157,1.8.345.909.188,1.787.36a9.754,9.754,0,0,0,1.881.172q0,1.411.047,2.743t.2,2.68Z" transform="translate(-163.515 -302.967)" fill="#072a52"/>
      <path id="Path_327" data-name="Path 327" d="M270.42,328.053a6.291,6.291,0,0,0,1.756-.345,1.921,1.921,0,0,0,.956-.784,3.19,3.19,0,0,0,.407-1.395q.078-.862.079-2.179V308.8a25.5,25.5,0,0,0-2.775.125,4.484,4.484,0,0,0-1.927.643,4.418,4.418,0,0,0-1.427,1.583,15.7,15.7,0,0,0-1.207,2.916l-.408-.125.439-6.144q1.317.063,2.6.094t2.6.031h7.367q1.254,0,2.477-.031t2.477-.094l.439,6.144-.408.125a15.761,15.761,0,0,0-1.207-2.916,4.426,4.426,0,0,0-1.427-1.583,4.531,4.531,0,0,0-1.959-.643,26.771,26.771,0,0,0-2.837-.125V323.35q0,1.317.079,2.179a3.19,3.19,0,0,0,.407,1.395,1.915,1.915,0,0,0,.988.784,6.812,6.812,0,0,0,1.819.345v.376q-1.192-.063-2.383-.094t-2.382-.031q-1.159,0-2.289.031t-2.257.094Z" transform="translate(-200.902 -303.997)" fill="#072a52"/>
      <path id="Path_328" data-name="Path 328" d="M369.258,297.082a16.883,16.883,0,0,0-2.771.591,3.446,3.446,0,0,0-1.459.831,2.282,2.282,0,0,0-.573,1.256,13.171,13.171,0,0,0-.111,1.865v17.731q1,.186,1.94.332a12.206,12.206,0,0,0,1.9.148,14.546,14.546,0,0,0,3.8-.444,9.575,9.575,0,0,0,2.918-1.33,11.267,11.267,0,0,0,2.383-2.235,29.7,29.7,0,0,0,2.2-3.158h.554l-2.844,8.275q-1.331-.074-2.679-.11t-2.678-.037h-10.86q-.924,0-1.847.037t-1.847.11V320.5a8.094,8.094,0,0,0,1.939-.369,3.163,3.163,0,0,0,1.128-.647,1.86,1.86,0,0,0,.535-.941,5.736,5.736,0,0,0,.13-1.294V302.623q0-1.552-.093-2.567a3.937,3.937,0,0,0-.462-1.644,2.18,2.18,0,0,0-1.108-.924,7.45,7.45,0,0,0-2.069-.406v-.443q1.441.075,2.863.111t2.863.037q1.55,0,3.121-.037t3.121-.111Z" transform="translate(-262.373 -296.491)" fill="#072a52"/>
      <path id="Path_329" data-name="Path 329" d="M435.785,327.081q.282.062.689.125t.878.125q.47.062.972.109t.941.047a16.414,16.414,0,0,0,3.37-.313,9.647,9.647,0,0,0,2.728-1,11.117,11.117,0,0,0,2.336-1.755,21.838,21.838,0,0,0,2.225-2.57l.345.282-2.853,6.3q-.533-.063-1.1-.094t-1.1-.031H433.433q-.91,0-1.819.031t-1.818.094v-.376a6.294,6.294,0,0,0,1.756-.345,1.846,1.846,0,0,0,.94-.784,3.363,3.363,0,0,0,.392-1.395q.078-.862.079-2.179V312.879q0-1.316-.079-2.179a3.366,3.366,0,0,0-.392-1.395,1.843,1.843,0,0,0-.972-.784,6.776,6.776,0,0,0-1.787-.345V307.8q1.065.031,2.022.062t1.975.047q1.019.016,2.163.016h2.586q2.193,0,4.389-.031t4.452-.094q-.032.345-.047.69c-.011.23-.016.449-.016.658V310.4q0,.69.063,1.395t.125,1.552l-.408.125a7.8,7.8,0,0,0-1.081-2.461,5.161,5.161,0,0,0-1.567-1.489,5.743,5.743,0,0,0-1.96-.721,12.968,12.968,0,0,0-2.257-.188q-2.194,0-4.388.188v7.838q.627,0,1.207-.031c.386-.021.789-.031,1.206-.031a6.026,6.026,0,0,0,3.433-.862,4.2,4.2,0,0,0,1.552-3.151h.376q0,1.129-.031,2.257t-.032,2.226q0,1.129.032,2.257t.031,2.257h-.376a9.471,9.471,0,0,0-.69-2.147,3.325,3.325,0,0,0-1.019-1.269,3.635,3.635,0,0,0-1.52-.6,12.964,12.964,0,0,0-2.163-.157h-2.006Z" transform="translate(-311.088 -303.997)" fill="#072a52"/>
      <path id="Path_330" data-name="Path 330" d="M498.455,318.213l-2.07,5.675c-.063.168-.12.313-.172.439a1.054,1.054,0,0,0-.078.407,1.5,1.5,0,0,0,.329.972,2.761,2.761,0,0,0,.8.674,4.924,4.924,0,0,0,.972.423,7.069,7.069,0,0,0,.847.22v.376q-.94-.063-1.881-.094t-1.913-.031q-.941,0-1.834.031t-1.9.094v-.376a4.225,4.225,0,0,0,2.7-1.756,7.979,7.979,0,0,0,.768-1.379q.329-.753.642-1.568L501.089,309c.063-.146.12-.282.172-.407a.907.907,0,0,0,.078-.345,1.614,1.614,0,0,0-.109-.47,2.911,2.911,0,0,0-.267-.564,7.091,7.091,0,0,0,1.41-.407q.6-.251,1.317-.533l6.52,17.932a4.647,4.647,0,0,0,1.223,1.928,4.154,4.154,0,0,0,2.32.894v.376q-1.255-.063-2.461-.094t-2.524-.031H507.3q-.628,0-1.129.015t-.956.048q-.455.03-.988.063v-.376a5.731,5.731,0,0,0,2.21-.674,1.565,1.565,0,0,0,.893-1.395,1.237,1.237,0,0,0-.11-.5,3.734,3.734,0,0,1-.172-.471l-2.038-5.768Zm3.386-8.9-3.072,7.963h5.894Z" transform="translate(-352.66 -302.967)" fill="#072a52"/>
      <path id="Path_331" data-name="Path 331" d="M562.856,327.409a5.811,5.811,0,0,0,1.646-.345,2.841,2.841,0,0,0,.941-.579,1.532,1.532,0,0,0,.423-.706,3.1,3.1,0,0,0,.094-.752V310.543a8.179,8.179,0,0,0-.079-1.207,1.789,1.789,0,0,0-.392-.893,2.088,2.088,0,0,0-.94-.6,7.262,7.262,0,0,0-1.693-.314v-.376q.815.063,1.631.094t1.63.031a35.335,35.335,0,0,0,4.076-.219,33.2,33.2,0,0,1,3.856-.219,14.253,14.253,0,0,1,4.765.784,11.928,11.928,0,0,1,3.9,2.241,10.583,10.583,0,0,1,2.649,3.527,10.789,10.789,0,0,1,.972,4.64,9.62,9.62,0,0,1-.941,4.436,8.606,8.606,0,0,1-2.508,3.01,10.285,10.285,0,0,1-3.59,1.708,16.441,16.441,0,0,1-4.216.534q-1.693,0-2.9-.016t-2.116-.016q-.91,0-1.631-.016t-1.379-.015q-1.066,0-2.1.031t-2.1.094Zm5.925-2.132a5.6,5.6,0,0,0,2.3,1.316,9.381,9.381,0,0,0,2.618.376q4.827,0,7.038-2.477t2.21-7.179a9.818,9.818,0,0,0-.737-3.809,9.579,9.579,0,0,0-2.038-3.088,9.4,9.4,0,0,0-3.1-2.069,10.493,10.493,0,0,0-8.1.125q-.126,1.63-.157,3.245t-.031,3.307Z" transform="translate(-400.604 -303.353)" fill="#072a52"/>
      <path id="Path_332" data-name="Path 332" d="M648.438,327.081q.282.062.689.125t.878.125q.47.062.972.109t.941.047a16.415,16.415,0,0,0,3.37-.313,9.644,9.644,0,0,0,2.728-1,11.116,11.116,0,0,0,2.336-1.755,21.832,21.832,0,0,0,2.225-2.57l.345.282-2.853,6.3q-.533-.063-1.1-.094t-1.1-.031H646.086q-.91,0-1.819.031t-1.818.094v-.376a6.294,6.294,0,0,0,1.756-.345,1.846,1.846,0,0,0,.94-.784,3.364,3.364,0,0,0,.392-1.395q.078-.862.079-2.179V312.879q0-1.316-.079-2.179a3.367,3.367,0,0,0-.392-1.395,1.843,1.843,0,0,0-.972-.784,6.774,6.774,0,0,0-1.787-.345V307.8q1.065.031,2.022.062t1.975.047q1.019.016,2.163.016h2.586q2.193,0,4.389-.031t4.452-.094q-.032.345-.047.69c-.011.23-.016.449-.016.658V310.4q0,.69.063,1.395t.126,1.552l-.408.125a7.8,7.8,0,0,0-1.081-2.461,5.165,5.165,0,0,0-1.567-1.489,5.743,5.743,0,0,0-1.96-.721,12.968,12.968,0,0,0-2.257-.188q-2.194,0-4.388.188v7.838q.626,0,1.207-.031t1.206-.031a6.025,6.025,0,0,0,3.433-.862,4.2,4.2,0,0,0,1.552-3.151h.376q0,1.129-.031,2.257t-.032,2.226q0,1.129.032,2.257t.031,2.257h-.376a9.47,9.47,0,0,0-.69-2.147,3.325,3.325,0,0,0-1.019-1.269,3.634,3.634,0,0,0-1.52-.6,12.964,12.964,0,0,0-2.163-.157h-2.006Z" transform="translate(-454.083 -303.997)" fill="#072a52"/>
      <path id="Path_333" data-name="Path 333" d="M730.048,327.917h-5.643a55.025,55.025,0,0,1-3.652-4.436,36,36,0,0,1-2.995-4.813,6.4,6.4,0,0,1-.8-.062q-.487-.062-1-.141t-1-.188q-.486-.11-.8-.2v4.89q0,1.317.079,2.179a3.19,3.19,0,0,0,.407,1.395,1.914,1.914,0,0,0,.988.784,6.813,6.813,0,0,0,1.819.345v.376q-1.192-.063-2.383-.094t-2.382-.031q-1.161,0-2.289.031t-2.257.094v-.376a6.3,6.3,0,0,0,1.756-.345,1.926,1.926,0,0,0,.956-.784,3.188,3.188,0,0,0,.407-1.395q.078-.862.079-2.179V312.493q0-1.316-.079-2.179a3.191,3.191,0,0,0-.407-1.395,1.933,1.933,0,0,0-.956-.784,6.348,6.348,0,0,0-1.756-.345v-.376q1,.063,2.006.094t2.007.032q.438,0,1.1-.047t1.395-.11q.737-.063,1.489-.11t1.348-.047a11.614,11.614,0,0,1,2.759.345,7.945,7.945,0,0,1,2.539,1.1,6.216,6.216,0,0,1,1.85,1.912,5.124,5.124,0,0,1,.721,2.759,4.571,4.571,0,0,1-.392,1.943,4.79,4.79,0,0,1-1.05,1.473,5.574,5.574,0,0,1-1.551,1.035,8.307,8.307,0,0,1-1.866.6q.438.752,1.034,1.693t1.332,1.912q.736.972,1.568,1.928a15.129,15.129,0,0,0,1.755,1.724,11.236,11.236,0,0,0,1.9,1.285,5.215,5.215,0,0,0,1.975.611Zm-15.894-10.91a8.177,8.177,0,0,0,2.916.533,5.745,5.745,0,0,0,3.793-1.129,4.531,4.531,0,0,0,1.348-3.668,4.317,4.317,0,0,0-.392-1.865,4.442,4.442,0,0,0-1.081-1.442,4.934,4.934,0,0,0-1.583-.941,5.358,5.358,0,0,0-1.865-.329q-.785,0-1.536.063a7.1,7.1,0,0,0-1.473.282q-.063,1.5-.094,3.041t-.032,3.323Z" transform="translate(-498.294 -303.61)" fill="#072a52"/>
    </g>
    <g id="Group_209" data-name="Group 209" transform="translate(140.099 173.868)">
      <g id="Group_206" data-name="Group 206">
        <path id="Path_334" data-name="Path 334" d="M315.988,203.091,342.9,173.868s-13.051,8.639-26.909,8.639-26.907-8.639-26.907-8.639Z" transform="translate(-289.081 -173.868)" fill="#072a52"/>
      </g>
      <g id="Group_208" data-name="Group 208" transform="translate(32.791)">
        <g id="Group_207" data-name="Group 207">
          <path id="Path_335" data-name="Path 335" d="M416.093,173.868,443,203.091s-13.051-8.639-26.908-8.639-26.907,8.639-26.907,8.639Z" transform="translate(-389.186 -173.868)" fill="#316ea5"/>
        </g>
      </g>
    </g>
    <g id="Group_210" data-name="Group 210" transform="translate(67.525 246.113)">
      <path id="Path_336" data-name="Path 336" d="M69.042,397.433c0-1.665-.1-2.111-1.517-2.23v-.178l.907.045c.3,0,.61.015.907.015.4,0,.788-.03,1.189-.059s.833-.06,1.279-.06c1.65,0,3.94.625,3.94,2.78a2.123,2.123,0,0,1-1.472,1.963v.03a2.766,2.766,0,0,1,2.171,2.8c0,1.829-1.74,2.364-3.479,2.364-.669,0-1.338-.044-2.007-.074-.684-.044-1.353-.074-2.022-.074-.461,0-.922.03-1.383.059v-.178c1.383-.119,1.487-.565,1.487-2.23Zm1.338,1.873a3.439,3.439,0,0,0,1.665.357,2,2,0,0,0,2.215-2.052,2.326,2.326,0,0,0-2.5-2.2,4.352,4.352,0,0,0-1.383.179Zm0,4.639c.148.283,1.249.505,2.022.505a2.293,2.293,0,0,0,2.557-2.468,2.757,2.757,0,0,0-1.323-2.1,9.3,9.3,0,0,1-1.442.163,5.371,5.371,0,0,1-1.814-.267Z" transform="translate(-67.525 -394.787)" fill="#072a52"/>
      <path id="Path_337" data-name="Path 337" d="M103.525,404.29a9.15,9.15,0,0,0,1.65.194c2.393,0,3.627-.773,5.055-2.676l.164.134-1.353,2.988c-.163-.015-.342-.029-.52-.045s-.342-.015-.52-.015h-5.59c-.58,0-1.145.03-1.725.059v-.178c1.412-.119,1.5-.565,1.5-2.23v-4.966c0-1.665-.089-2.111-1.531-2.23v-.178c1.338.03,2.334.059,4.148.059,1.383,0,2.78-.03,4.192-.059-.029.461-.029.847-.029,1.234,0,.431.059.862.089,1.4l-.193.06c-.505-1.918-1.754-2.3-3.256-2.3-.7,0-1.383.029-2.081.089v3.717c.387,0,.758-.03,1.145-.03,1.353,0,2.186-.461,2.364-1.9h.179c0,.714-.03,1.427-.03,2.126s.03,1.427.03,2.141h-.179c-.342-1.68-.966-1.977-2.557-1.977h-.952Z" transform="translate(-89.803 -394.909)" fill="#072a52"/>
      <path id="Path_338" data-name="Path 338" d="M140.719,397.483a3.743,3.743,0,0,0-3.167-2.587c-1.13,0-1.933.357-1.933,1.427,0,2.557,5.783,1.948,5.783,5.56,0,1.933-1.516,2.795-3.33,2.795-.981,0-2.245-.431-2.706-.431a1.848,1.848,0,0,0-.624.164c-.179-1.13-.431-2.215-.684-3.316l.193-.1c.729,1.368,2.007,3.211,3.791,3.211,1.16,0,2.2-.476,2.2-1.769,0-2.84-5.783-2.364-5.783-5.457a2.606,2.606,0,0,1,2.765-2.557,8.159,8.159,0,0,1,1.844.238,8.036,8.036,0,0,0,1.739.253,21.118,21.118,0,0,0,.119,2.572Z" transform="translate(-112.265 -394.421)" fill="#072a52"/>
      <path id="Path_339" data-name="Path 339" d="M164.625,404.751c1.412-.119,1.516-.565,1.516-2.23v-6.9c-2.067,0-2.735.149-3.479,2.5l-.194-.059.208-2.914,1.234.045c.416,0,.833.015,1.234.015h3.494c.788,0,1.561-.03,2.349-.059l.208,2.914-.193.059c-.744-2.349-1.412-2.5-3.524-2.5v6.9c0,1.665.1,2.111,1.561,2.23v.178c-.758-.029-1.5-.059-2.26-.059-.728,0-1.442.03-2.156.059Z" transform="translate(-131.369 -394.909)" fill="#072a52"/>
      <path id="Path_340" data-name="Path 340" d="M212.4,395.325c-1.9.268-1.977.624-1.977,1.829v7.136a8.135,8.135,0,0,0,1.546.194c2.335,0,3.375-.937,4.55-2.885h.223l-1.145,3.33-1.07-.045c-.372-.015-.729-.015-1.085-.015h-4.371c-.491,0-1,.03-1.487.059v-.178c1.293-.119,1.5-.536,1.5-1.309v-5.887c0-1.665-.089-2.111-1.5-2.23v-.178c.773.03,1.531.059,2.3.059.832,0,1.68-.03,2.512-.059Z" transform="translate(-161.704 -394.909)" fill="#072a52"/>
      <path id="Path_341" data-name="Path 341" d="M241.9,404.29a9.149,9.149,0,0,0,1.65.194c2.393,0,3.627-.773,5.055-2.676l.163.134-1.353,2.988c-.163-.015-.342-.029-.52-.045s-.342-.015-.52-.015h-5.59c-.58,0-1.145.03-1.725.059v-.178c1.412-.119,1.5-.565,1.5-2.23v-4.966c0-1.665-.089-2.111-1.531-2.23v-.178c1.338.03,2.334.059,4.148.059,1.383,0,2.78-.03,4.192-.059-.03.461-.03.847-.03,1.234,0,.431.06.862.089,1.4l-.193.06c-.505-1.918-1.754-2.3-3.256-2.3-.7,0-1.383.029-2.081.089v3.717c.387,0,.758-.03,1.145-.03,1.353,0,2.185-.461,2.364-1.9h.178c0,.714-.03,1.427-.03,2.126s.03,1.427.03,2.141h-.178c-.342-1.68-.966-1.977-2.557-1.977H241.9Z" transform="translate(-182.853 -394.909)" fill="#072a52"/>
      <path id="Path_342" data-name="Path 342" d="M273.664,400.085l-.981,2.691a1.117,1.117,0,0,0-.119.4c0,.714.952,1.011,1.4,1.086v.178c-.595-.029-1.189-.059-1.8-.059-.595,0-1.13.03-1.769.059v-.178c1.234-.268,1.531-1.219,1.947-2.23l2.572-6.319a1,1,0,0,0,.119-.357,1.415,1.415,0,0,0-.178-.491,5.766,5.766,0,0,0,1.294-.446l3.092,8.5a1.813,1.813,0,0,0,1.68,1.338v.178c-.788-.029-1.561-.059-2.364-.059-1.085,0-1.472.03-2.156.059v-.178c.832-.1,1.472-.431,1.472-.981a1.5,1.5,0,0,0-.134-.461l-.966-2.735Zm1.606-4.223-1.457,3.776h2.795Z" transform="translate(-203.941 -394.421)" fill="#072a52"/>
      <path id="Path_343" data-name="Path 343" d="M306.247,404.445c1.308-.119,1.472-.654,1.472-1.13v-6.869c0-.862-.1-1.308-1.472-1.427v-.178c.268.014.52.029.773.044.253,0,.52.015.773.015.7,0,1.323-.059,1.933-.1s1.2-.1,1.828-.1c3.2,0,5.828,2.052,5.828,5.308,0,3.285-2.572,4.594-5.337,4.594-2.111,0-2.959-.03-3.806-.03-.669,0-1.323.03-1.992.059Zm2.81-1.011a3.388,3.388,0,0,0,2.334.8c3.048,0,4.386-1.606,4.386-4.579a4.531,4.531,0,0,0-4.653-4.609,4.907,4.907,0,0,0-1.977.416c-.074,1.026-.089,2.067-.089,3.107Z" transform="translate(-228.05 -394.603)" fill="#072a52"/>
      <path id="Path_344" data-name="Path 344" d="M348.873,404.29a9.154,9.154,0,0,0,1.65.194c2.394,0,3.627-.773,5.055-2.676l.163.134-1.353,2.988c-.164-.015-.342-.029-.521-.045s-.342-.015-.521-.015h-5.59c-.58,0-1.145.03-1.725.059v-.178c1.412-.119,1.5-.565,1.5-2.23v-4.966c0-1.665-.089-2.111-1.531-2.23v-.178c1.338.03,2.334.059,4.148.059,1.383,0,2.78-.03,4.192-.059-.03.461-.03.847-.03,1.234,0,.431.06.862.089,1.4l-.193.06c-.505-1.918-1.754-2.3-3.256-2.3-.7,0-1.383.029-2.081.089v3.717c.387,0,.758-.03,1.145-.03,1.353,0,2.186-.461,2.364-1.9h.178c0,.714-.03,1.427-.03,2.126s.03,1.427.03,2.141h-.178c-.342-1.68-.966-1.977-2.557-1.977h-.952Z" transform="translate(-254.784 -394.909)" fill="#072a52"/>
      <path id="Path_345" data-name="Path 345" d="M389.617,404.687h-2.676a19.768,19.768,0,0,1-3.152-4.386,7.613,7.613,0,0,1-1.71-.282v2.319c0,1.665.1,2.111,1.561,2.23v.178c-.758-.03-1.5-.059-2.259-.059-.729,0-1.442.03-2.156.059v-.178c1.412-.119,1.517-.565,1.517-2.23v-4.966c0-1.665-.1-2.111-1.517-2.23v-.178l.952.044c.312,0,.639.015.952.015.282,0,.713-.045,1.189-.074.461-.045.966-.074,1.338-.074,1.725,0,3.732.862,3.732,2.9a2.5,2.5,0,0,1-2.3,2.394c.833,1.412,2.631,4.133,4.534,4.341Zm-7.538-5.174a4.381,4.381,0,0,0,1.383.253c1.531,0,2.438-.669,2.438-2.274a2.221,2.221,0,0,0-2.334-2.171,5.018,5.018,0,0,0-1.428.163c-.029.952-.059,1.9-.059,3.018Z" transform="translate(-277.123 -394.726)" fill="#072a52"/>
      <path id="Path_346" data-name="Path 346" d="M434.707,395.147c.713.03,1.427.059,2.141.059.624,0,1.263-.03,1.888-.059v.178c-.833.134-1.428.372-1.428,1.323a53.713,53.713,0,0,0,1.1,6.735c.178.773.357,1.2,1.665,1.368v.178c-.788-.029-1.576-.059-2.364-.059-.743,0-1.472.03-2.215.059v-.178c.847-.134,1.546-.283,1.546-1.293a6.9,6.9,0,0,0-.1-1.16l-1.026-5.991h-.03c-1.115,2.839-2.5,5.575-3.419,8.563h-.03a62.787,62.787,0,0,0-3.538-8.712h-.029c-.327,2.185-.669,5.62-.669,6.646,0,1.308.3,1.888,1.725,1.948v.178c-.818-.029-1.62-.059-2.438-.059-.61,0-1.219.03-1.829.059v-.178a1.859,1.859,0,0,0,1.814-1.249c.119-.684.208-1.487.312-2.23l.714-5.293a3.605,3.605,0,0,0-1.606-.654v-.178c.847.03,1.695.059,2.542.059.61,0,1.219-.03,1.829-.059v.178c-.372.089-.758.3-.758.788a2.615,2.615,0,0,0,.268.981l2.1,5.144a55.121,55.121,0,0,0,2.691-6.408,1.908,1.908,0,0,0-.847-.505Z" transform="translate(-308.343 -394.909)" fill="#072a52"/>
      <path id="Path_347" data-name="Path 347" d="M474.581,400.085l-.981,2.691a1.111,1.111,0,0,0-.119.4c0,.714.952,1.011,1.4,1.086v.178c-.595-.029-1.19-.059-1.8-.059s-1.13.03-1.769.059v-.178c1.234-.268,1.531-1.219,1.948-2.23l2.572-6.319a1,1,0,0,0,.119-.357,1.414,1.414,0,0,0-.178-.491,5.765,5.765,0,0,0,1.293-.446l3.092,8.5a1.814,1.814,0,0,0,1.68,1.338v.178c-.788-.029-1.561-.059-2.364-.059-1.085,0-1.472.03-2.156.059v-.178c.833-.1,1.472-.431,1.472-.981a1.5,1.5,0,0,0-.134-.461l-.966-2.735Zm1.605-4.223-1.457,3.776h2.795Z" transform="translate(-339.045 -394.421)" fill="#072a52"/>
      <path id="Path_348" data-name="Path 348" d="M517.556,404.687H514.88a19.775,19.775,0,0,1-3.151-4.386,7.611,7.611,0,0,1-1.71-.282v2.319c0,1.665.1,2.111,1.561,2.23v.178c-.758-.03-1.5-.059-2.26-.059-.729,0-1.442.03-2.156.059v-.178c1.412-.119,1.517-.565,1.517-2.23v-4.966c0-1.665-.1-2.111-1.517-2.23v-.178l.952.044c.312,0,.639.015.952.015.282,0,.713-.045,1.189-.074.461-.045.966-.074,1.338-.074,1.725,0,3.732.862,3.732,2.9a2.5,2.5,0,0,1-2.3,2.394c.832,1.412,2.631,4.133,4.534,4.341Zm-7.538-5.174a4.377,4.377,0,0,0,1.382.253c1.531,0,2.438-.669,2.438-2.274a2.221,2.221,0,0,0-2.334-2.171,5.014,5.014,0,0,0-1.427.163c-.03.952-.059,1.9-.059,3.018Z" transform="translate(-363.154 -394.726)" fill="#072a52"/>
      <path id="Path_349" data-name="Path 349" d="M544.631,402.521c0,1.665.1,2.111,1.561,2.23v.178c-.758-.029-1.5-.059-2.26-.059-.728,0-1.442.03-2.156.059v-.178c1.412-.119,1.516-.565,1.516-2.23v-4.966c0-1.665-.1-2.111-1.546-2.23v-.178c.8.03,1.62.059,2.423.059.655,0,1.309-.03,1.947-.059v.178c-1.382.119-1.486.565-1.486,2.23v2.513l2.26-1.844c.818-.669,1.561-1.531,1.561-2.082,0-.609-.58-.8-1.085-.818v-.178c.743.03,1.472.059,2.215.059.788,0,1.576-.03,2.364-.059v.178c-1.026.119-1.7.536-3.063,1.71l-1.844,1.576,3,4.415a3.442,3.442,0,0,0,2.423,1.725v.178c-.847-.029-1.709-.059-2.557-.059-.773,0-1.531.03-2.3.059v-.178c.714-.045,1.323-.253,1.323-.907,0-.283-.238-.55-.624-1.115l-2.245-3.3-1.427,1.115Z" transform="translate(-386.409 -394.909)" fill="#072a52"/>
      <path id="Path_350" data-name="Path 350" d="M580.424,404.29a9.16,9.16,0,0,0,1.65.194c2.394,0,3.627-.773,5.055-2.676l.164.134-1.353,2.988c-.163-.015-.342-.029-.52-.045s-.342-.015-.521-.015h-5.59c-.58,0-1.145.03-1.724.059v-.178c1.412-.119,1.5-.565,1.5-2.23v-4.966c0-1.665-.089-2.111-1.531-2.23v-.178c1.338.03,2.334.059,4.148.059,1.382,0,2.78-.03,4.193-.059-.03.461-.03.847-.03,1.234,0,.431.059.862.089,1.4l-.193.06c-.506-1.918-1.754-2.3-3.256-2.3-.7,0-1.383.029-2.082.089v3.717c.387,0,.758-.03,1.145-.03,1.353,0,2.185-.461,2.364-1.9h.178c0,.714-.029,1.427-.029,2.126s.029,1.427.029,2.141h-.178c-.342-1.68-.966-1.977-2.557-1.977h-.952Z" transform="translate(-410.488 -394.909)" fill="#072a52"/>
      <path id="Path_351" data-name="Path 351" d="M612.569,404.751c1.412-.119,1.516-.565,1.516-2.23v-6.9c-2.067,0-2.736.149-3.479,2.5l-.194-.059.208-2.914,1.234.045c.416,0,.832.015,1.234.015h3.494c.788,0,1.561-.03,2.349-.059l.208,2.914-.193.059c-.744-2.349-1.413-2.5-3.524-2.5v6.9c0,1.665.1,2.111,1.561,2.23v.178c-.758-.029-1.5-.059-2.26-.059-.729,0-1.442.03-2.156.059Z" transform="translate(-432.583 -394.909)" fill="#072a52"/>
      <path id="Path_352" data-name="Path 352" d="M649.07,397.483A3.743,3.743,0,0,0,645.9,394.9c-1.13,0-1.933.357-1.933,1.427,0,2.557,5.784,1.948,5.784,5.56,0,1.933-1.517,2.795-3.33,2.795-.981,0-2.244-.431-2.706-.431a1.853,1.853,0,0,0-.625.164c-.178-1.13-.431-2.215-.684-3.316l.194-.1c.728,1.368,2.007,3.211,3.791,3.211,1.159,0,2.2-.476,2.2-1.769,0-2.84-5.783-2.364-5.783-5.457a2.606,2.606,0,0,1,2.765-2.557,8.16,8.16,0,0,1,1.844.238,8.036,8.036,0,0,0,1.739.253,21.248,21.248,0,0,0,.118,2.572Z" transform="translate(-454.099 -394.421)" fill="#072a52"/>
      <path id="Path_353" data-name="Path 353" d="M687.036,395.325c-1.9.268-1.977.624-1.977,1.829v7.136a8.146,8.146,0,0,0,1.546.194c2.334,0,3.375-.937,4.549-2.885h.223l-1.145,3.33-1.07-.045c-.372-.015-.728-.015-1.085-.015h-4.371c-.49,0-1,.03-1.487.059v-.178c1.294-.119,1.5-.536,1.5-1.309v-5.887c0-1.665-.089-2.111-1.5-2.23v-.178c.773.03,1.532.059,2.3.059.833,0,1.68-.03,2.512-.059Z" transform="translate(-480.868 -394.909)" fill="#072a52"/>
      <path id="Path_354" data-name="Path 354" d="M711.379,404.751c1.412-.119,1.517-.565,1.517-2.23v-6.9c-2.067,0-2.736.149-3.479,2.5l-.194-.059.208-2.914,1.234.045c.416,0,.832.015,1.234.015h3.494c.788,0,1.562-.03,2.349-.059l.208,2.914-.193.059c-.744-2.349-1.413-2.5-3.524-2.5v6.9c0,1.665.1,2.111,1.561,2.23v.178c-.758-.029-1.5-.059-2.26-.059-.729,0-1.442.03-2.156.059Z" transform="translate(-499.026 -394.909)" fill="#072a52"/>
      <path id="Path_355" data-name="Path 355" d="M741.037,404.445c1.308-.119,1.472-.654,1.472-1.13v-6.869c0-.862-.1-1.308-1.472-1.427v-.178c.268.014.52.029.773.044.253,0,.52.015.773.015.7,0,1.323-.059,1.933-.1s1.2-.1,1.828-.1c3.2,0,5.828,2.052,5.828,5.308,0,3.285-2.572,4.594-5.337,4.594-2.111,0-2.959-.03-3.806-.03-.669,0-1.323.03-1.992.059Zm2.81-1.011a3.39,3.39,0,0,0,2.334.8c3.048,0,4.386-1.606,4.386-4.579a4.531,4.531,0,0,0-4.654-4.609,4.907,4.907,0,0,0-1.977.416c-.074,1.026-.089,2.067-.089,3.107Z" transform="translate(-520.419 -394.603)" fill="#072a52"/>
    </g>
  </g>
</svg>
